<svg width="26" height="22" viewBox="0 0 26 22" fill="none" xmlns="http://www.w3.org/2000/svg">
<path d="M8.16725 21.375C17.979 21.375 23.3464 13.2451 23.3464 6.20725C23.3464 5.97975 23.3464 5.749 23.3366 5.5215C24.3816 4.76504 25.2835 3.82849 26 2.75575C25.0239 3.18613 23.9895 3.46978 22.9304 3.5975C24.046 2.93066 24.8815 1.88145 25.2817 0.644872C24.2336 1.26582 23.0864 1.70173 21.8904 1.9335C21.0863 1.07716 20.0223 0.509863 18.8631 0.319478C17.704 0.129093 16.5144 0.326245 15.4787 0.880395C14.4429 1.43455 13.6188 2.31477 13.134 3.38472C12.6492 4.45467 12.5307 5.65464 12.7969 6.79875C10.6758 6.69239 8.60083 6.14138 6.70644 5.18145C4.81206 4.22153 3.14061 2.87412 1.8005 1.22662C1.12018 2.40163 0.912557 3.79152 1.2198 5.11405C1.52704 6.43659 2.32611 7.59261 3.45475 8.34737C2.609 8.31864 1.78185 8.09153 1.04 7.68437V7.7575C1.04146 8.9884 1.46787 10.1811 2.24717 11.1339C3.02647 12.0867 4.11084 12.7412 5.317 12.9867C4.85918 13.1129 4.38625 13.1757 3.91138 13.1736C3.5766 13.1746 3.24249 13.1436 2.91363 13.081C3.25453 14.1406 3.91832 15.067 4.81203 15.7305C5.70573 16.394 6.78459 16.7614 7.8975 16.7811C6.0069 18.266 3.67153 19.0714 1.2675 19.0675C0.843896 19.0693 0.420588 19.0449 0 18.9944C2.43996 20.5499 5.27361 21.3759 8.16725 21.375Z" fill="#525252"/>
</svg>
