<svg width="20" height="11" viewBox="0 0 20 11" fill="none" xmlns="http://www.w3.org/2000/svg">
<path fill-rule="evenodd" clip-rule="evenodd" d="M9.11631 0.874986C9.35072 0.640647 9.6686 0.509003 10.0001 0.509003C10.3315 0.509003 10.6494 0.640647 10.8838 0.874986L19.1926 9.18249C19.3099 9.29984 19.3758 9.45902 19.3758 9.62499C19.3758 9.79096 19.3099 9.95013 19.1926 10.0675C19.0752 10.1848 18.916 10.2508 18.7501 10.2508C18.5841 10.2508 18.4249 10.1848 18.3076 10.0675L10.0001 1.75874L1.69256 10.0675C1.5752 10.1848 1.41603 10.2508 1.25006 10.2508C1.08409 10.2508 0.924915 10.1848 0.807557 10.0675C0.690199 9.95013 0.624268 9.79096 0.624268 9.62499C0.624268 9.45902 0.690199 9.29984 0.807557 9.18249L9.11631 0.874986Z" fill="#0B0A0B"/>
</svg>
