<svg width="23" height="23" viewBox="0 0 23 23" fill="none" xmlns="http://www.w3.org/2000/svg">
<g clip-path="url(#clip0_87_159)">
<path d="M22.9999 11.5704C22.9999 5.17929 17.8508 -0.00146484 11.4999 -0.00146484C5.14619 -2.73437e-05 -0.00292969 5.17929 -0.00292969 11.5718C-0.00292969 17.3463 4.2032 22.1332 9.70019 23.0014V14.9155H6.78207V11.5718H9.70307V9.02029C9.70307 6.12085 11.4209 4.51947 14.0472 4.51947C15.3064 4.51947 16.6218 4.74516 16.6218 4.74516V7.59141H15.1713C13.7439 7.59141 13.2983 8.4841 13.2983 9.39979V11.5704H16.4866L15.9778 14.914H13.2968V23C18.7938 22.1317 22.9999 17.3448 22.9999 11.5704Z" fill="#525252"/>
</g>
<defs>
<clipPath id="clip0_87_159">
<rect width="23" height="23" fill="white"/>
</clipPath>
</defs>
</svg>
