<svg width="20" height="20" viewBox="0 0 20 20" fill="none" xmlns="http://www.w3.org/2000/svg">
<path fill-rule="evenodd" clip-rule="evenodd" d="M2.5 16.875V8.75H3.75V16.875C3.75 17.0408 3.81585 17.1997 3.93306 17.3169C4.05027 17.4342 4.20924 17.5 4.375 17.5H15.625C15.7908 17.5 15.9497 17.4342 16.0669 17.3169C16.1842 17.1997 16.25 17.0408 16.25 16.875V8.75H17.5V16.875C17.5 17.3723 17.3025 17.8492 16.9508 18.2008C16.5992 18.5525 16.1223 18.75 15.625 18.75H4.375C3.87772 18.75 3.40081 18.5525 3.04917 18.2008C2.69754 17.8492 2.5 17.3723 2.5 16.875ZM16.25 3.125V7.5L13.75 5V3.125C13.75 2.95924 13.8158 2.80027 13.9331 2.68306C14.0503 2.56585 14.2092 2.5 14.375 2.5H15.625C15.7908 2.5 15.9497 2.56585 16.0669 2.68306C16.1842 2.80027 16.25 2.95924 16.25 3.125Z" fill="white"/>
<path fill-rule="evenodd" clip-rule="evenodd" d="M9.11704 1.87477C9.35145 1.64043 9.66934 1.50879 10.0008 1.50879C10.3322 1.50879 10.6501 1.64043 10.8845 1.87477L19.1933 10.1823C19.3106 10.2996 19.3766 10.4588 19.3766 10.6248C19.3766 10.7907 19.3106 10.9499 19.1933 11.0673C19.0759 11.1846 18.9168 11.2506 18.7508 11.2506C18.5848 11.2506 18.4256 11.1846 18.3083 11.0673L10.0008 2.75852L1.69329 11.0673C1.57593 11.1846 1.41676 11.2506 1.25079 11.2506C1.08482 11.2506 0.925648 11.1846 0.80829 11.0673C0.690931 10.9499 0.625 10.7907 0.625 10.6248C0.625 10.4588 0.690931 10.2996 0.80829 10.1823L9.11704 1.87477Z" fill="white"/>
</svg>
