<svg width="23" height="23" viewBox="0 0 23 23" fill="none" xmlns="http://www.w3.org/2000/svg">
<path d="M11.5 0C8.37919 0 7.98675 0.014375 6.76056 0.069C5.53438 0.1265 4.69919 0.319125 3.9675 0.60375C3.20001 0.892427 2.50483 1.34525 1.93056 1.93056C1.34561 2.50513 0.892842 3.20022 0.60375 3.9675C0.319125 4.69775 0.125062 5.53437 0.069 6.75625C0.014375 7.98531 0 8.37631 0 11.5014C0 14.6237 0.014375 15.0147 0.069 16.2409C0.1265 17.4656 0.319125 18.3008 0.60375 19.0325C0.898438 19.7886 1.29088 20.4297 1.93056 21.0694C2.56881 21.7091 3.20994 22.103 3.96606 22.3962C4.69919 22.6809 5.53294 22.8749 6.75769 22.931C7.98531 22.9856 8.37631 23 11.5 23C14.6237 23 15.0133 22.9856 16.2409 22.931C17.4642 22.8735 18.3022 22.6809 19.0339 22.3962C19.8009 22.1074 20.4956 21.6546 21.0694 21.0694C21.7091 20.4297 22.1016 19.7886 22.3962 19.0325C22.6794 18.3008 22.8735 17.4656 22.931 16.2409C22.9856 15.0147 23 14.6237 23 11.5C23 8.37631 22.9856 7.98531 22.931 6.75769C22.8735 5.53438 22.6794 4.69775 22.3962 3.9675C22.1072 3.2002 21.6544 2.5051 21.0694 1.93056C20.4953 1.34503 19.8001 0.892178 19.0325 0.60375C18.2994 0.319125 17.4627 0.125062 16.2394 0.069C15.0118 0.014375 14.6223 0 11.4971 0H11.5014H11.5ZM10.4693 2.07288H11.5014C14.5719 2.07288 14.9356 2.08294 16.1474 2.139C17.2687 2.18931 17.8782 2.37762 18.2836 2.53431C18.8197 2.74275 19.2036 2.99288 19.6061 3.39538C20.0086 3.79787 20.2572 4.18025 20.4657 4.71788C20.6238 5.12181 20.8107 5.73131 20.861 6.85256C20.9171 8.06437 20.9286 8.42806 20.9286 11.4971C20.9286 14.5662 20.9171 14.9313 20.861 16.1431C20.8107 17.2644 20.6224 17.8724 20.4657 18.2778C20.2813 18.7771 19.987 19.2286 19.6046 19.5989C19.2021 20.0014 18.8197 20.2501 18.2821 20.4585C17.8796 20.6166 17.2701 20.8035 16.1474 20.8553C14.9356 20.9099 14.5719 20.9228 11.5014 20.9228C8.43094 20.9228 8.06581 20.9099 6.854 20.8553C5.73275 20.8035 5.12469 20.6166 4.71931 20.4585C4.21978 20.2744 3.76787 19.9806 3.39681 19.5989C3.01408 19.228 2.71935 18.7761 2.53431 18.2764C2.37762 17.8724 2.18931 17.2629 2.139 16.1417C2.08438 14.9299 2.07288 14.5662 2.07288 11.4942C2.07288 8.42375 2.08438 8.0615 2.139 6.84969C2.19075 5.72844 2.37762 5.11894 2.53575 4.71356C2.74419 4.17737 2.99431 3.79356 3.39681 3.39106C3.79931 2.98856 4.18169 2.73988 4.71931 2.53144C5.12469 2.37331 5.73275 2.18644 6.854 2.13469C7.91488 2.08581 8.326 2.07144 10.4693 2.07V2.07288ZM17.6396 3.98187C17.4583 3.98187 17.2789 4.01757 17.1115 4.08692C16.944 4.15627 16.7919 4.25792 16.6638 4.38607C16.5356 4.51421 16.434 4.66634 16.3646 4.83377C16.2953 5.0012 16.2596 5.18065 16.2596 5.36188C16.2596 5.5431 16.2953 5.72255 16.3646 5.88998C16.434 6.05741 16.5356 6.20954 16.6638 6.33768C16.7919 6.46583 16.944 6.56748 17.1115 6.63683C17.2789 6.70618 17.4583 6.74188 17.6396 6.74188C18.0056 6.74188 18.3566 6.59648 18.6154 6.33768C18.8742 6.07888 19.0196 5.72787 19.0196 5.36188C19.0196 4.99588 18.8742 4.64487 18.6154 4.38607C18.3566 4.12727 18.0056 3.98187 17.6396 3.98187ZM11.5014 5.59475C10.7181 5.58253 9.94016 5.72626 9.21291 6.01758C8.48565 6.3089 7.82362 6.74198 7.26534 7.29161C6.70707 7.84124 6.26371 8.49644 5.96108 9.21906C5.65846 9.94168 5.50261 10.7173 5.50261 11.5007C5.50261 12.2842 5.65846 13.0598 5.96108 13.7824C6.26371 14.505 6.70707 15.1602 7.26534 15.7098C7.82362 16.2595 8.48565 16.6925 9.21291 16.9839C9.94016 17.2752 10.7181 17.4189 11.5014 17.4067C13.0518 17.3825 14.5306 16.7496 15.6184 15.6447C16.7063 14.5397 17.316 13.0513 17.316 11.5007C17.316 9.95013 16.7063 8.46172 15.6184 7.35677C14.5306 6.25181 13.0518 5.61894 11.5014 5.59475ZM11.5014 7.66619C12.5182 7.66619 13.4934 8.07011 14.2124 8.78909C14.9313 9.50806 15.3352 10.4832 15.3352 11.5C15.3352 12.5168 14.9313 13.4919 14.2124 14.2109C13.4934 14.9299 12.5182 15.3338 11.5014 15.3338C10.4846 15.3338 9.5095 14.9299 8.79052 14.2109C8.07154 13.4919 7.66762 12.5168 7.66762 11.5C7.66762 10.4832 8.07154 9.50806 8.79052 8.78909C9.5095 8.07011 10.4846 7.66619 11.5014 7.66619Z" fill="#525252"/>
</svg>
