<svg width="23" height="23" viewBox="0 0 23 23" fill="none" xmlns="http://www.w3.org/2000/svg">
<path d="M7.22487 21.5625C15.9045 21.5625 20.6526 14.3707 20.6526 8.14489C20.6526 7.94364 20.6526 7.73952 20.6439 7.53827C21.5683 6.86909 22.3661 6.04061 23 5.09164C22.1365 5.47237 21.2215 5.72329 20.2846 5.83627C21.2715 5.24637 22.0106 4.31822 22.3646 3.22433C21.4374 3.77364 20.4226 4.15924 19.3646 4.36427C18.6533 3.60674 17.712 3.1049 16.6866 2.93648C15.6612 2.76807 14.6089 2.94247 13.6927 3.43268C12.7764 3.92289 12.0474 4.70155 11.6185 5.64804C11.1896 6.59454 11.0848 7.65605 11.3203 8.66814C9.444 8.57406 7.60842 8.08663 5.93262 7.23746C4.25682 6.38829 2.77823 5.19636 1.59275 3.73896C0.990926 4.77839 0.807262 6.00791 1.07905 7.17784C1.35085 8.34777 2.05772 9.37041 3.05612 10.0381C2.30796 10.0127 1.57625 9.81176 0.92 9.45158V9.51627C0.92129 10.6051 1.2985 11.6602 1.98788 12.503C2.67726 13.3459 3.63651 13.9249 4.7035 14.1421C4.2985 14.2537 3.88014 14.3093 3.46006 14.3075C3.16391 14.3084 2.86836 14.2809 2.57744 14.2255C2.87901 15.1629 3.46621 15.9824 4.25679 16.5693C5.04738 17.1563 6.00176 17.4812 6.98625 17.4987C5.3138 18.8123 3.24789 19.5247 1.12125 19.5213C0.746524 19.5229 0.372058 19.5012 0 19.4566C2.15843 20.8326 4.66512 21.5633 7.22487 21.5625Z" fill="#525252"/>
</svg>
